<svg width="133" height="109" viewBox="0 0 133 109" fill="none" xmlns="http://www.w3.org/2000/svg">
<path fill-rule="evenodd" clip-rule="evenodd" d="M47.2781 1.14441e-05C37.9579 1.14441e-05 30.6104 7.93443 31.3252 17.2271L32.8636 37.2272C33.5049 45.5631 40.4559 52 48.8165 52L116.722 52C126.042 52 133.39 44.0656 132.675 34.7729L131.136 14.7729C130.495 6.4369 123.544 0 115.184 0L47.2781 1.14441e-05ZM16.278 57C6.95789 57 -0.389647 64.9344 0.325177 74.2271L1.86364 94.2272C2.50487 102.563 9.45593 109 17.8165 109L85.722 109C95.0421 109 102.39 101.066 101.675 91.7729L100.136 71.7729C99.4952 63.4369 92.5441 57 84.1835 57L16.278 57Z" fill="url(#paint0_linear_449_195)"/>
<defs>
<linearGradient id="paint0_linear_449_195" x1="125.249" y1="-10.1777" x2="1.5666" y2="209.721" gradientUnits="userSpaceOnUse">
<stop stop-color="#F56FA8"/>
<stop offset="1" stop-color="white"/>
</linearGradient>
</defs>
</svg>
