<svg width="68" height="68" viewBox="0 0 68 68" fill="none" xmlns="http://www.w3.org/2000/svg">
<rect x="64" y="64" width="64" height="64" rx="20.7123" transform="rotate(-180 64 64)" fill="url(#paint0_linear_383_168)"/>
<rect x="64" y="64" width="64" height="64" rx="20.7123" transform="rotate(-180 64 64)" fill="url(#paint1_linear_383_168)"/>
<g filter="url(#filter0_d_383_168)">
<path fill-rule="evenodd" clip-rule="evenodd" d="M43.0414 32.8276C50.1065 32.8276 55.747 26.9395 55.4438 19.8809C55.1584 13.2384 49.6901 8 43.0414 8L40.1306 8C31.3361 8 24.3149 15.3294 24.6924 24.1157L24.9956 31.1724L20.4253 31.1724C13.3602 31.1724 7.71966 37.0605 8.02291 44.119C8.3083 50.7616 13.7765 56 20.4253 56L23.3361 56C32.1305 56 39.1518 48.6706 38.7743 39.8843L38.4711 32.8276L43.0414 32.8276Z" fill="url(#paint2_linear_383_168)" shape-rendering="crispEdges"/>
</g>
<defs>
<filter id="filter0_d_383_168" x="4.01123" y="4" width="63.4442" height="64" filterUnits="userSpaceOnUse" color-interpolation-filters="sRGB">
<feFlood flood-opacity="0" result="BackgroundImageFix"/>
<feColorMatrix in="SourceAlpha" type="matrix" values="0 0 0 0 0 0 0 0 0 0 0 0 0 0 0 0 0 0 127 0" result="hardAlpha"/>
<feOffset dx="4" dy="4"/>
<feGaussianBlur stdDeviation="4"/>
<feComposite in2="hardAlpha" operator="out"/>
<feColorMatrix type="matrix" values="0 0 0 0 0 0 0 0 0 0 0 0 0 0 0 0 0 0 0.25 0"/>
<feBlend mode="normal" in2="BackgroundImageFix" result="effect1_dropShadow_383_168"/>
<feBlend mode="normal" in="SourceGraphic" in2="effect1_dropShadow_383_168" result="shape"/>
</filter>
<linearGradient id="paint0_linear_383_168" x1="128" y1="64" x2="64" y2="128" gradientUnits="userSpaceOnUse">
<stop stop-color="#6B1525"/>
<stop offset="1" stop-color="#F56FA8"/>
</linearGradient>
<linearGradient id="paint1_linear_383_168" x1="128" y1="64" x2="64" y2="128" gradientUnits="userSpaceOnUse">
<stop stop-color="#6B1525"/>
<stop offset="1" stop-color="#F56FA8"/>
</linearGradient>
<linearGradient id="paint2_linear_383_168" x1="55.2976" y1="8" x2="7.45525" y2="55.2776" gradientUnits="userSpaceOnUse">
<stop stop-color="white"/>
<stop offset="1" stop-color="white" stop-opacity="0.74"/>
</linearGradient>
</defs>
</svg>
