<svg width="100" height="100" viewBox="0 0 100 100" fill="none" xmlns="http://www.w3.org/2000/svg">
<path fill-rule="evenodd" clip-rule="evenodd" d="M100 66.6532C100 78.4486 100 84.3464 97.6681 88.8355C95.703 92.6185 92.6185 95.703 88.8355 97.6681C84.3464 100 78.4486 100 66.6532 100H33.3469C21.5514 100 15.6536 100 11.1645 97.6681C7.38151 95.703 4.29702 92.6185 2.33193 88.8355C0 84.3464 0 78.4486 0 66.6532V33.3469C0 21.5514 0 15.6536 2.33193 11.1645C4.29702 7.38151 7.38151 4.29702 11.1645 2.33193C15.6536 0 21.5514 0 33.3468 0H66.6532C78.4486 0 84.3464 0 88.8355 2.33193C92.6185 4.29702 95.703 7.38151 97.6681 11.1645C100 15.6536 100 21.5514 100 33.3468V66.6532ZM12.3836 65.3937C11.9927 56.296 19.2628 48.7069 28.3689 48.7069H39.0556L38.2169 29.1868C37.826 20.0891 45.0961 12.5 54.2022 12.5L70.506 12.5C79.0754 12.5 86.1234 19.2517 86.4912 27.8132L86.7831 34.6063C87.1739 43.704 79.9039 51.2931 70.7978 51.2931L60.1111 51.2931L60.9498 70.8132C61.3406 79.9109 54.0706 87.5 44.9645 87.5L28.6607 87.5C20.0912 87.5 13.0433 80.7483 12.6755 72.1868L12.3836 65.3937Z" fill="url(#paint0_linear_412_183)"/>
<defs>
<linearGradient id="paint0_linear_412_183" x1="100" y1="0" x2="0" y2="100" gradientUnits="userSpaceOnUse">
<stop stop-color="#6B1525"/>
<stop offset="1" stop-color="#F56FA8"/>
</linearGradient>
</defs>
</svg>
