<svg width="280" height="70" viewBox="0 0 280 70" fill="none" xmlns="http://www.w3.org/2000/svg">
<path d="M21.3178 69.8463C17.2911 69.8463 13.3236 69.4022 9.41535 68.5139C5.50709 67.5665 2.36864 66.3525 0 64.8721L5.06297 53.325C7.25396 54.687 9.85947 55.7825 12.8795 56.6115C15.8995 57.3813 18.8899 57.7662 21.8507 57.7662C24.5747 57.7662 26.4992 57.4997 27.6243 56.9668C28.8086 56.3746 29.4008 55.5456 29.4008 54.4797C29.4008 53.4138 28.6902 52.6736 27.269 52.2591C25.907 51.7854 23.716 51.3413 20.696 50.9268C16.847 50.453 13.5605 49.8313 10.8365 49.0615C8.17181 48.2916 5.86239 46.8705 3.90826 44.7979C1.95413 42.7253 0.977065 39.8238 0.977065 36.0931C0.977065 33.0139 1.89491 30.29 3.73061 27.9213C5.56631 25.4935 8.23103 23.5986 11.7248 22.2366C15.2777 20.8154 19.5117 20.1048 24.4266 20.1048C27.9204 20.1048 31.3845 20.4601 34.819 21.1707C38.2536 21.8813 41.1255 22.888 43.435 24.1907L38.372 35.649C34.1084 33.2804 29.4896 32.0961 24.5154 32.0961C21.8507 32.0961 19.8966 32.4217 18.6531 33.0731C17.4095 33.6653 16.7877 34.4647 16.7877 35.4714C16.7877 36.5965 17.4687 37.3959 18.8307 37.8696C20.1927 38.2841 22.4429 38.7283 25.5813 39.202C29.5488 39.7941 32.8353 40.4751 35.4408 41.2449C38.0463 42.0147 40.2965 43.4359 42.1914 45.5085C44.1455 47.5218 45.1226 50.3642 45.1226 54.0356C45.1226 57.0556 44.2048 59.7796 42.3691 62.2074C40.5334 64.576 37.8094 66.4414 34.1973 67.8033C30.6443 69.1653 26.3511 69.8463 21.3178 69.8463Z" fill="url(#paint0_linear_416_168)"/>
<path d="M80.6411 20.1048C86.622 20.1048 91.4184 21.8813 95.0306 25.4343C98.702 28.9872 100.538 34.3463 100.538 41.5114V69.0469H83.6611V44.265C83.6611 37.692 81.026 34.4055 75.7558 34.4055C72.8542 34.4055 70.5152 35.3529 68.7387 37.2479C67.0214 39.1428 66.1628 41.9851 66.1628 45.775V69.0469H49.2862V3.13942H66.1628V25.3454C67.9985 23.6282 70.1599 22.3254 72.647 21.4372C75.134 20.5489 77.7988 20.1048 80.6411 20.1048Z" fill="url(#paint1_linear_416_168)"/>
<path d="M108.025 22.6807H124.901V69.0469H108.025V22.6807ZM116.463 17.9425C113.384 17.9425 110.897 17.0838 109.002 15.3666C107.107 13.6493 106.159 11.5175 106.159 8.97123C106.159 6.42494 107.107 4.29316 109.002 2.5759C110.897 0.858632 113.384 0 116.463 0C119.542 0 122.029 0.829024 123.924 2.48707C125.819 4.08591 126.766 6.15847 126.766 8.70476C126.766 11.3695 125.819 13.5901 123.924 15.3666C122.029 17.0838 119.542 17.9425 116.463 17.9425Z" fill="url(#paint2_linear_416_168)"/>
<path d="M151.147 22.6807H164.374V35.2937H151.591V69.0469H134.714V35.2937H127.697V22.6807H134.714V21.4372C134.714 15.5748 136.461 10.9263 139.955 7.4918C143.508 4.05727 148.452 2.34 154.788 2.34C156.92 2.34 158.993 2.54726 161.006 2.96177C163.019 3.37628 164.677 3.99805 165.98 4.82707L161.805 16.7295C160.147 15.782 158.46 15.3083 156.743 15.3083C154.966 15.3083 153.574 15.8413 152.568 16.9071C151.62 17.973 151.147 19.5423 151.147 21.6148V22.6807Z" fill="url(#paint3_linear_416_168)"/>
<path d="M202.657 67.0927C201.236 67.981 199.489 68.662 197.417 69.1357C195.403 69.6094 193.242 69.8463 190.932 69.8463C184.655 69.8463 179.829 68.3067 176.454 65.2274C173.079 62.1482 171.391 57.559 171.391 51.4597V35.2937H164.374V22.6807H171.391V10.1565H188.268V22.6807H199.282V35.2937H188.268V51.2821C188.268 52.9993 188.712 54.3613 189.6 55.368C190.547 56.3154 191.791 56.7891 193.331 56.7891C195.285 56.7891 197.002 56.2858 198.482 55.2791L202.657 67.0927Z" fill="url(#paint4_linear_416_168)"/>
<path d="M206.056 3.13942H222.933V69.0469H206.056V3.13942Z" fill="url(#paint5_linear_416_168)"/>
<path d="M280 45.0644C280 45.1828 279.911 46.5744 279.734 49.2391H244.737C245.447 51.7262 246.809 53.6507 248.823 55.0127C250.895 56.3154 253.471 56.9668 256.55 56.9668C258.86 56.9668 260.844 56.6411 262.502 55.9897C264.219 55.3384 265.936 54.2725 267.653 52.7921L276.536 62.0298C271.858 67.2408 265.018 69.8463 256.017 69.8463C250.392 69.8463 245.447 68.7804 241.184 66.6486C236.92 64.5168 233.604 61.556 231.236 57.7662C228.926 53.9764 227.771 49.6832 227.771 44.8867C227.771 40.1494 228.897 35.9155 231.147 32.1849C233.456 28.3951 236.624 25.4343 240.651 23.3025C244.678 21.1707 249.208 20.1048 254.241 20.1048C259.038 20.1048 263.39 21.1115 267.298 23.1248C271.206 25.079 274.286 27.9509 276.536 31.7408C278.845 35.4714 280 39.9126 280 45.0644ZM254.33 32.0961C251.724 32.0961 249.533 32.8363 247.757 34.3167C246.04 35.7971 244.944 37.8104 244.47 40.3567H264.189C263.716 37.8104 262.59 35.7971 260.814 34.3167C259.097 32.8363 256.935 32.0961 254.33 32.0961Z" fill="url(#paint6_linear_416_168)"/>
<defs>
<linearGradient id="paint0_linear_416_168" x1="280.329" y1="8.02289" x2="-6.6071" y2="79.7569" gradientUnits="userSpaceOnUse">
<stop stop-color="#6B6B6B" stop-opacity="0.2"/>
<stop offset="1" stop-color="#F0F0F0" stop-opacity="0.2"/>
</linearGradient>
<linearGradient id="paint1_linear_416_168" x1="280.329" y1="8.02289" x2="-6.6071" y2="79.7569" gradientUnits="userSpaceOnUse">
<stop stop-color="#6B6B6B" stop-opacity="0.2"/>
<stop offset="1" stop-color="#F0F0F0" stop-opacity="0.2"/>
</linearGradient>
<linearGradient id="paint2_linear_416_168" x1="280.329" y1="8.02289" x2="-6.6071" y2="79.7569" gradientUnits="userSpaceOnUse">
<stop stop-color="#6B6B6B" stop-opacity="0.2"/>
<stop offset="1" stop-color="#F0F0F0" stop-opacity="0.2"/>
</linearGradient>
<linearGradient id="paint3_linear_416_168" x1="280.329" y1="8.02289" x2="-6.6071" y2="79.7569" gradientUnits="userSpaceOnUse">
<stop stop-color="#6B6B6B" stop-opacity="0.2"/>
<stop offset="1" stop-color="#F0F0F0" stop-opacity="0.2"/>
</linearGradient>
<linearGradient id="paint4_linear_416_168" x1="280.329" y1="8.02289" x2="-6.6071" y2="79.7569" gradientUnits="userSpaceOnUse">
<stop stop-color="#6B6B6B" stop-opacity="0.2"/>
<stop offset="1" stop-color="#F0F0F0" stop-opacity="0.2"/>
</linearGradient>
<linearGradient id="paint5_linear_416_168" x1="280.329" y1="8.02289" x2="-6.6071" y2="79.7569" gradientUnits="userSpaceOnUse">
<stop stop-color="#6B6B6B" stop-opacity="0.2"/>
<stop offset="1" stop-color="#F0F0F0" stop-opacity="0.2"/>
</linearGradient>
<linearGradient id="paint6_linear_416_168" x1="280.329" y1="8.02289" x2="-6.6071" y2="79.7569" gradientUnits="userSpaceOnUse">
<stop stop-color="#6B6B6B" stop-opacity="0.2"/>
<stop offset="1" stop-color="#F0F0F0" stop-opacity="0.2"/>
</linearGradient>
</defs>
</svg>
