<svg width="164" height="166" viewBox="0 0 164 166" fill="none" xmlns="http://www.w3.org/2000/svg">
<path fill-rule="evenodd" clip-rule="evenodd" d="M78.278 -2.09317e-06C68.9579 0 61.6103 7.93442 62.3251 17.2271L63.8636 37.2272C64.5048 45.5631 71.4559 52 79.8165 52L147.722 52C157.042 52 164.39 44.0656 163.675 34.7729L162.136 14.7728C161.495 6.43689 154.544 -1.26702e-05 146.183 -1.15107e-05L78.278 -2.09317e-06ZM31.3251 74.2271C30.6103 64.9344 37.9579 57 47.278 57L115.183 57C123.544 57 130.495 63.4369 131.136 71.7729L132.675 91.7729C133.39 101.066 126.042 109 116.722 109L48.8165 109C40.4559 109 33.5048 102.563 32.8636 94.2272L31.3251 74.2271ZM0.325149 131.227C-0.389675 121.934 6.95786 114 16.278 114L84.1835 114C92.5441 114 99.4951 120.437 100.136 128.773L101.675 148.773C102.39 158.066 95.0421 166 85.722 166L17.8165 166C9.45591 166 2.50484 159.563 1.86361 151.227L0.325149 131.227Z" fill="url(#paint0_linear_449_195)"/>
<defs>
<linearGradient id="paint0_linear_449_195" x1="154.5" y1="-15.5" x2="-52" y2="282" gradientUnits="userSpaceOnUse">
<stop stop-color="#F56FA8"/>
<stop offset="1" stop-color="white"/>
</linearGradient>
</defs>
</svg>
